<svg xmlns="http://www.w3.org/2000/svg" width="1024" height="512" viewBox="0 0 1024 512">
  <defs>
    <linearGradient id="gradient" gradientTransform="rotate(90)">
      <stop offset="0%" stop-color="#111" />
      <stop offset="100%" stop-color="#000" />
    </linearGradient>
  </defs>
  <rect width="1024" height="512" fill="url(#gradient)" />
  <g stroke="yellow" fill="none" stroke-width="1">
    <path d="M0 50 Q200 100, 400 50 T800 50" />
    <path d="M0 100 Q200 150, 400 100 T800 100" />
    <path d="M0 150 Q200 200, 400 150 T800 150" />
    <path d="M0 200 Q200 250, 400 200 T800 200" />
    <path d="M0 250 Q200 300, 400 250 T800 250" />
    <path d="M100 0 Q300 300, 600 500 T1024 512" />
    <path d="M150 0 Q350 250, 700 450 T1024 500" />
  </g>
</svg>
